<mxfile host="app.diagrams.net" agent="Mozilla/5.0 (Windows NT 10.0; Win64; x64) AppleWebKit/537.36 (KHTML, like Gecko) Chrome/136.0.0.0 Safari/537.36 Edg/136.0.0.0" version="27.0.3">
  <diagram name="第 1 页" id="S2RGQvcJA3FcOc1Qyu4S">
    <mxGraphModel dx="1500" dy="826" grid="1" gridSize="10" guides="1" tooltips="1" connect="1" arrows="1" fold="1" page="1" pageScale="1" pageWidth="827" pageHeight="1169" math="0" shadow="0">
      <root>
        <mxCell id="0" />
        <mxCell id="1" parent="0" />
        <mxCell id="vir9oaAlZZpBoWdDmsXK-3" value="" style="edgeStyle=orthogonalEdgeStyle;rounded=0;orthogonalLoop=1;jettySize=auto;html=1;" parent="1" source="vir9oaAlZZpBoWdDmsXK-1" target="vir9oaAlZZpBoWdDmsXK-2" edge="1">
          <mxGeometry relative="1" as="geometry" />
        </mxCell>
        <mxCell id="vir9oaAlZZpBoWdDmsXK-1" value="&lt;font style=&quot;font-size: 14px;&quot;&gt;开始&lt;/font&gt;" style="strokeWidth=2;html=1;shape=mxgraph.flowchart.terminator;whiteSpace=wrap;" parent="1" vertex="1">
          <mxGeometry x="190" y="230" width="100" height="50" as="geometry" />
        </mxCell>
        <mxCell id="vir9oaAlZZpBoWdDmsXK-5" value="" style="edgeStyle=orthogonalEdgeStyle;rounded=0;orthogonalLoop=1;jettySize=auto;html=1;" parent="1" source="vir9oaAlZZpBoWdDmsXK-2" target="vir9oaAlZZpBoWdDmsXK-4" edge="1">
          <mxGeometry relative="1" as="geometry" />
        </mxCell>
        <mxCell id="vir9oaAlZZpBoWdDmsXK-2" value="&lt;p class=&quot;MsoNormal&quot;&gt;&lt;font style=&quot;font-size: 14px;&quot;&gt;&lt;font style=&quot;&quot;&gt;ESP32&lt;/font&gt;&lt;font style=&quot;&quot;&gt;通过&lt;/font&gt;&lt;font style=&quot;&quot;&gt;checkAllDevices&lt;/font&gt;&lt;font style=&quot;&quot;&gt;函数获取所有设备状态&lt;/font&gt;&lt;/font&gt;&lt;/p&gt;" style="whiteSpace=wrap;html=1;strokeWidth=2;" parent="1" vertex="1">
          <mxGeometry x="170" y="310" width="140" height="60" as="geometry" />
        </mxCell>
        <mxCell id="vir9oaAlZZpBoWdDmsXK-7" value="" style="edgeStyle=orthogonalEdgeStyle;rounded=0;orthogonalLoop=1;jettySize=auto;html=1;" parent="1" source="vir9oaAlZZpBoWdDmsXK-4" target="vir9oaAlZZpBoWdDmsXK-6" edge="1">
          <mxGeometry relative="1" as="geometry" />
        </mxCell>
        <mxCell id="vir9oaAlZZpBoWdDmsXK-4" value="&lt;div style=&quot;line-height: 30%;&quot;&gt;&lt;p class=&quot;MsoNormal&quot;&gt;&lt;span style=&quot;font-size: 14px; background-color: transparent; color: light-dark(rgb(0, 0, 0), rgb(255, 255, 255));&quot;&gt;OneNET云平台转&lt;/span&gt;&lt;/p&gt;&lt;p class=&quot;MsoNormal&quot;&gt;&lt;span style=&quot;font-size: 14px; background-color: transparent; color: light-dark(rgb(0, 0, 0), rgb(255, 255, 255));&quot;&gt;发&lt;/span&gt;&lt;span style=&quot;background-color: transparent; color: light-dark(rgb(0, 0, 0), rgb(255, 255, 255)); font-size: 14px;&quot;&gt;最新设备状态&lt;/span&gt;&lt;/p&gt;&lt;/div&gt;" style="whiteSpace=wrap;html=1;strokeWidth=2;" parent="1" vertex="1">
          <mxGeometry x="180" y="410" width="120" height="60" as="geometry" />
        </mxCell>
        <mxCell id="vir9oaAlZZpBoWdDmsXK-9" value="" style="edgeStyle=orthogonalEdgeStyle;rounded=0;orthogonalLoop=1;jettySize=auto;html=1;" parent="1" source="vir9oaAlZZpBoWdDmsXK-6" target="vir9oaAlZZpBoWdDmsXK-8" edge="1">
          <mxGeometry relative="1" as="geometry" />
        </mxCell>
        <mxCell id="vir9oaAlZZpBoWdDmsXK-6" value="&lt;p class=&quot;MsoNormal&quot;&gt;&lt;font style=&quot;font-size: 14px;&quot; face=&quot;Helvetica&quot;&gt;后端遍历设备状态&lt;/font&gt;&lt;/p&gt;" style="whiteSpace=wrap;html=1;strokeWidth=2;" parent="1" vertex="1">
          <mxGeometry x="180" y="500" width="120" height="60" as="geometry" />
        </mxCell>
        <mxCell id="vir9oaAlZZpBoWdDmsXK-11" value="" style="edgeStyle=orthogonalEdgeStyle;rounded=0;orthogonalLoop=1;jettySize=auto;html=1;" parent="1" source="vir9oaAlZZpBoWdDmsXK-8" target="vir9oaAlZZpBoWdDmsXK-10" edge="1">
          <mxGeometry relative="1" as="geometry" />
        </mxCell>
        <mxCell id="vir9oaAlZZpBoWdDmsXK-18" value="" style="edgeStyle=orthogonalEdgeStyle;rounded=0;orthogonalLoop=1;jettySize=auto;html=1;" parent="1" source="vir9oaAlZZpBoWdDmsXK-8" target="vir9oaAlZZpBoWdDmsXK-17" edge="1">
          <mxGeometry relative="1" as="geometry" />
        </mxCell>
        <mxCell id="vir9oaAlZZpBoWdDmsXK-8" value="&lt;div style=&quot;line-height: 30%;&quot;&gt;&lt;p class=&quot;MsoNormal&quot;&gt;&lt;span style=&quot;line-height: 30%;&quot;&gt;&lt;font style=&quot;font-size: 14px;&quot;&gt;数据库中是&lt;/font&gt;&lt;/span&gt;&lt;/p&gt;&lt;p class=&quot;MsoNormal&quot;&gt;&lt;span style=&quot;background-color: transparent; color: light-dark(rgb(0, 0, 0), rgb(255, 255, 255)); line-height: 30%;&quot;&gt;&lt;font style=&quot;font-size: 14px;&quot;&gt;否有此设备&lt;/font&gt;&lt;/span&gt;&lt;/p&gt;&lt;/div&gt;" style="rhombus;whiteSpace=wrap;html=1;strokeWidth=2;" parent="1" vertex="1">
          <mxGeometry x="344" y="485" width="140" height="90" as="geometry" />
        </mxCell>
        <mxCell id="vir9oaAlZZpBoWdDmsXK-13" value="" style="edgeStyle=orthogonalEdgeStyle;rounded=0;orthogonalLoop=1;jettySize=auto;html=1;" parent="1" source="vir9oaAlZZpBoWdDmsXK-10" target="vir9oaAlZZpBoWdDmsXK-12" edge="1">
          <mxGeometry relative="1" as="geometry" />
        </mxCell>
        <mxCell id="vir9oaAlZZpBoWdDmsXK-20" value="" style="edgeStyle=orthogonalEdgeStyle;rounded=0;orthogonalLoop=1;jettySize=auto;html=1;" parent="1" source="vir9oaAlZZpBoWdDmsXK-10" target="vir9oaAlZZpBoWdDmsXK-19" edge="1">
          <mxGeometry relative="1" as="geometry" />
        </mxCell>
        <mxCell id="vir9oaAlZZpBoWdDmsXK-10" value="&lt;div style=&quot;line-height: 30%;&quot;&gt;&lt;p class=&quot;MsoNormal&quot;&gt;&lt;span style=&quot;background-color: transparent; color: light-dark(rgb(0, 0, 0), rgb(255, 255, 255));&quot;&gt;&lt;font style=&quot;font-size: 14px;&quot;&gt;该设备原&lt;/font&gt;&lt;/span&gt;&lt;/p&gt;&lt;p class=&quot;MsoNormal&quot;&gt;&lt;font style=&quot;font-size: 14px;&quot;&gt;&lt;span style=&quot;background-color: transparent; color: light-dark(rgb(0, 0, 0), rgb(255, 255, 255));&quot;&gt;status是否等于&lt;/span&gt;&lt;span style=&quot;background-color: transparent; color: light-dark(rgb(0, 0, 0), rgb(255, 255, 255));&quot;&gt;现&lt;/span&gt;&lt;/font&gt;&lt;/p&gt;&lt;p class=&quot;MsoNormal&quot;&gt;&lt;font style=&quot;font-size: 14px;&quot;&gt;&lt;span style=&quot;background-color: transparent; color: light-dark(rgb(0, 0, 0), rgb(255, 255, 255));&quot;&gt;status&lt;/span&gt;&lt;/font&gt;&lt;/p&gt;&lt;/div&gt;" style="rhombus;whiteSpace=wrap;html=1;strokeWidth=2;" parent="1" vertex="1">
          <mxGeometry x="344" y="354" width="140" height="90" as="geometry" />
        </mxCell>
        <mxCell id="vir9oaAlZZpBoWdDmsXK-15" value="" style="edgeStyle=orthogonalEdgeStyle;rounded=0;orthogonalLoop=1;jettySize=auto;html=1;" parent="1" source="vir9oaAlZZpBoWdDmsXK-12" edge="1">
          <mxGeometry relative="1" as="geometry">
            <mxPoint x="554" y="290" as="targetPoint" />
          </mxGeometry>
        </mxCell>
        <mxCell id="vir9oaAlZZpBoWdDmsXK-12" value="&lt;div style=&quot;line-height: 30%;&quot;&gt;&lt;p class=&quot;MsoNormal&quot;&gt;&lt;span style=&quot;line-height: 30%;&quot;&gt;&lt;font style=&quot;font-size: 14px;&quot; face=&quot;Helvetica&quot;&gt;只需要更新最后&lt;/font&gt;&lt;/span&gt;&lt;/p&gt;&lt;p class=&quot;MsoNormal&quot;&gt;&lt;span style=&quot;line-height: 30%;&quot;&gt;&lt;font style=&quot;font-size: 14px;&quot; face=&quot;Helvetica&quot;&gt;活跃时间&lt;/font&gt;&lt;/span&gt;&lt;/p&gt;&lt;/div&gt;" style="whiteSpace=wrap;html=1;strokeWidth=2;" parent="1" vertex="1">
          <mxGeometry x="354" y="260" width="120" height="60" as="geometry" />
        </mxCell>
        <mxCell id="vir9oaAlZZpBoWdDmsXK-16" value="&lt;font style=&quot;font-size: 14px;&quot;&gt;结束&lt;/font&gt;" style="strokeWidth=2;html=1;shape=mxgraph.flowchart.terminator;whiteSpace=wrap;" parent="1" vertex="1">
          <mxGeometry x="559" y="265" width="100" height="50" as="geometry" />
        </mxCell>
        <mxCell id="JjxFPG42MXMqxVpL8NsB-2" value="" style="edgeStyle=orthogonalEdgeStyle;rounded=0;orthogonalLoop=1;jettySize=auto;html=1;" parent="1" source="vir9oaAlZZpBoWdDmsXK-17" edge="1">
          <mxGeometry relative="1" as="geometry">
            <mxPoint x="658.9999999999998" y="290" as="targetPoint" />
            <Array as="points">
              <mxPoint x="690" y="530" />
              <mxPoint x="690" y="290" />
            </Array>
          </mxGeometry>
        </mxCell>
        <mxCell id="vir9oaAlZZpBoWdDmsXK-17" value="&lt;div style=&quot;line-height: 30%;&quot;&gt;&lt;p class=&quot;MsoNormal&quot;&gt;&lt;span style=&quot;line-height: 30%;&quot;&gt;&lt;font style=&quot;&quot; face=&quot;Helvetica&quot;&gt;&lt;font style=&quot;font-size: 14px;&quot;&gt;添加设备，&lt;/font&gt;&lt;/font&gt;&lt;/span&gt;&lt;/p&gt;&lt;p class=&quot;MsoNormal&quot;&gt;&lt;span style=&quot;line-height: 30%;&quot;&gt;&lt;font style=&quot;font-size: 14px;&quot; face=&quot;Helvetica&quot;&gt;&lt;font style=&quot;&quot;&gt;同时置&lt;/font&gt;&lt;font style=&quot;&quot;&gt;status=1&lt;/font&gt;&lt;/font&gt;&lt;/span&gt;&lt;/p&gt;&lt;/div&gt;" style="whiteSpace=wrap;html=1;strokeWidth=2;" parent="1" vertex="1">
          <mxGeometry x="520" y="505" width="120" height="50" as="geometry" />
        </mxCell>
        <mxCell id="vir9oaAlZZpBoWdDmsXK-19" value="&lt;p class=&quot;MsoNormal&quot;&gt;&lt;font style=&quot;font-size: 14px;&quot; face=&quot;Helvetica&quot;&gt;&lt;font style=&quot;&quot;&gt;需要更新&lt;/font&gt;&lt;font style=&quot;&quot;&gt;LastActiveTime&lt;/font&gt;&lt;font style=&quot;&quot;&gt;和&lt;/font&gt;&lt;font style=&quot;&quot;&gt;status&lt;/font&gt;&lt;/font&gt;&lt;span style=&quot;mso-spacerun:&#39;yes&#39;;font-family:Calibri;mso-fareast-font-family:宋体;&lt;br/&gt;mso-bidi-font-family:&#39;Times New Roman&#39;;font-size:10.5000pt;mso-font-kerning:1.0000pt;&quot;&gt;&lt;/span&gt;&lt;/p&gt;" style="whiteSpace=wrap;html=1;strokeWidth=2;" parent="1" vertex="1">
          <mxGeometry x="520" y="371.5" width="120" height="55" as="geometry" />
        </mxCell>
        <mxCell id="vir9oaAlZZpBoWdDmsXK-23" value="" style="endArrow=none;html=1;rounded=0;" parent="1" edge="1">
          <mxGeometry width="50" height="50" relative="1" as="geometry">
            <mxPoint x="583.5" y="370" as="sourcePoint" />
            <mxPoint x="584" y="340" as="targetPoint" />
          </mxGeometry>
        </mxCell>
        <mxCell id="vir9oaAlZZpBoWdDmsXK-24" value="" style="endArrow=classic;html=1;rounded=0;" parent="1" edge="1">
          <mxGeometry width="50" height="50" relative="1" as="geometry">
            <mxPoint x="584" y="340" as="sourcePoint" />
            <mxPoint x="414" y="340" as="targetPoint" />
          </mxGeometry>
        </mxCell>
        <mxCell id="vir9oaAlZZpBoWdDmsXK-25" value="&lt;font style=&quot;font-size: 14px;&quot;&gt;N&lt;/font&gt;" style="text;html=1;align=center;verticalAlign=middle;whiteSpace=wrap;rounded=0;" parent="1" vertex="1">
          <mxGeometry x="470" y="529" width="60" height="30" as="geometry" />
        </mxCell>
        <mxCell id="vir9oaAlZZpBoWdDmsXK-26" value="&lt;font style=&quot;font-size: 14px;&quot;&gt;Y&lt;/font&gt;" style="text;html=1;align=center;verticalAlign=middle;whiteSpace=wrap;rounded=0;" parent="1" vertex="1">
          <mxGeometry x="370" y="453" width="60" height="30" as="geometry" />
        </mxCell>
        <mxCell id="vir9oaAlZZpBoWdDmsXK-27" value="&lt;font style=&quot;font-size: 14px;&quot;&gt;Y&lt;/font&gt;" style="text;html=1;align=center;verticalAlign=middle;whiteSpace=wrap;rounded=0;" parent="1" vertex="1">
          <mxGeometry x="371" y="327" width="60" height="30" as="geometry" />
        </mxCell>
        <mxCell id="vir9oaAlZZpBoWdDmsXK-28" value="&lt;font style=&quot;font-size: 14px;&quot;&gt;N&lt;/font&gt;" style="text;html=1;align=center;verticalAlign=middle;whiteSpace=wrap;rounded=0;" parent="1" vertex="1">
          <mxGeometry x="469" y="395.5" width="60" height="30" as="geometry" />
        </mxCell>
      </root>
    </mxGraphModel>
  </diagram>
</mxfile>
